<svg width="66" height="32" viewBox="0 0 66 32" fill="none" xmlns="http://www.w3.org/2000/svg">
<path d="M10.9944 5.27897H10.8942H6.87109C6.78218 5.30041 6.71098 5.36573 6.6831 5.45145C6.6079 5.79639 6.55777 6.15366 6.50764 6.4986C6.45751 6.84355 6.41991 6.97906 6.38231 7.22545C6.27131 7.13129 6.17799 7.0187 6.10658 6.89283C5.57858 5.89478 4.59458 5.20717 3.46213 5.0449C2.17657 4.81209 0.902352 5.50278 0.416627 6.69572C0.117553 7.48289 -0.0229177 8.31973 0.00304024 9.15962C0.00304024 12.1409 0.00304024 20.1117 0.00304024 23.0314C0.00484123 23.5872 0.0383148 24.1424 0.103304 24.6945C0.160564 25.3593 0.422912 25.9912 0.85528 26.5055C1.55073 27.2072 2.55894 27.5175 3.53733 27.3309C4.48496 27.2071 5.31703 26.6496 5.78073 25.8279C5.91859 25.6431 6.04392 25.446 6.16925 25.2489V26.6164C6.26951 27.6019 5.80579 28.1563 4.82822 28.1563C3.85065 28.1563 2.50963 28.1563 1.36913 28.1563H1.04327V32H1.38166C2.92322 32 4.4773 32 6.03138 32C6.45071 32.0007 6.86955 31.9719 7.28468 31.9137C8.68612 31.7817 9.91627 30.9414 10.5307 29.6962C10.8644 28.9565 11.023 28.1519 10.9944 27.3432C10.9944 21.7748 10.9944 11.0938 10.9944 5.52536C11.007 5.45144 10.9944 5.36521 10.9944 5.27897ZM6.26951 22.6618C6.27004 22.8694 6.24479 23.0762 6.19431 23.2778C6.12186 23.5689 5.84677 23.7665 5.5426 23.7459C5.38884 23.7631 5.23465 23.7174 5.11616 23.6196C4.99767 23.5217 4.92528 23.3803 4.91595 23.2285C4.89748 23.0565 4.89748 22.8831 4.91595 22.7111V9.67704C4.90304 9.52125 4.90304 9.36468 4.91595 9.2089C4.92246 9.06181 4.98821 8.92332 5.09871 8.82394C5.20921 8.72456 5.35539 8.67247 5.505 8.67916C5.82723 8.64915 6.11785 8.87013 6.16925 9.18426C6.21778 9.34519 6.25134 9.51013 6.26951 9.67704V22.6618Z" fill="#6FBE92"/>
<path d="M65.9948 9.76619C65.9967 9.26968 65.9547 8.77391 65.8693 8.2841C65.7174 6.89893 64.6928 5.74271 63.2849 5.36775C61.6004 4.87742 59.8006 4.87742 58.116 5.36775C56.5942 5.71791 55.4993 6.98524 55.4312 8.47534C55.3434 9.61081 55.4312 10.7582 55.4312 11.9056H59.8976V11.6666C59.8976 10.8419 59.8976 10.0172 59.8976 9.19248C59.875 8.96984 59.9797 8.75284 60.1718 8.62424C60.3639 8.49564 60.6137 8.47529 60.8259 8.57096C61.1647 8.69048 61.2149 8.97733 61.2149 9.27614V11.9535C61.2255 12.0188 61.2073 12.0855 61.1645 12.1376C61.1217 12.1897 61.0582 12.2225 60.989 12.2284L58.8813 12.8021C58.0852 13.0031 57.3303 13.3304 56.6482 13.7702C55.5566 14.5341 54.9395 15.7683 55.0047 17.0571C55.0047 18.2523 55.0047 19.4475 55.0047 20.6428C55.0208 21.0932 55.101 21.5395 55.2431 21.9695C55.5235 23.0368 56.4775 23.8213 57.6268 23.9296C58.8622 24.1916 60.1404 23.7083 60.851 22.7105C61.0141 22.4715 61.1521 22.2085 61.3278 21.8978C61.4281 22.4954 61.541 23.093 61.6289 23.595C61.6289 23.7743 61.7292 23.8221 61.9174 23.8221C63.172 23.8221 64.4266 23.8221 65.6812 23.8221C65.9321 23.8221 65.9823 23.7504 65.9823 23.5233C65.9948 18.9097 66.0074 14.3439 65.9948 9.76619ZM61.1898 19.328C61.1888 19.5536 61.1419 19.7768 61.0518 19.9854C60.9672 20.226 60.7401 20.3953 60.4747 20.4157C60.3304 20.4473 60.1789 20.4182 60.0588 20.3358C59.9387 20.2534 59.8616 20.1257 59.8474 19.9854C59.8415 19.9497 59.8415 19.9135 59.8474 19.8778C59.8474 18.7902 59.8474 17.6905 59.8474 16.6029C59.8426 16.1429 60.1782 15.7432 60.6503 15.6467L61.1898 15.4913C61.1898 15.5989 61.1898 15.6706 61.1898 15.7423C61.2023 16.9734 61.2023 18.1686 61.1898 19.3639V19.328Z" fill="#6FBE92"/>
<path d="M22.5 21.2448C22.8339 20.4201 23.0035 19.5427 22.9999 18.6581C22.9999 15.9157 22.9999 13.1733 22.9999 10.4309C22.9935 9.77257 22.9053 9.11731 22.7375 8.4789C22.4198 6.9048 21.1753 5.65164 19.5502 5.26946C18.2474 4.9228 16.8723 4.91041 15.5629 5.23353C14.1328 5.5407 12.9645 6.52467 12.4631 7.8442C12.155 8.64553 11.9984 9.49308 12.0007 10.3471V14.4786C12.0007 15.76 12.0007 17.0534 12.0007 18.3467C11.9932 19.0087 12.0476 19.67 12.1632 20.3227C12.4293 21.9906 13.7161 23.3416 15.4254 23.7477C16.6513 24.0625 17.9391 24.083 19.1752 23.8076C20.6726 23.5642 21.9312 22.5941 22.5 21.2448ZM18.1628 19.3886C18.1602 19.6232 18.1266 19.8566 18.0628 20.0832C18.0001 20.3043 17.7894 20.457 17.5503 20.4544C17.2753 20.4544 17.0128 20.4544 16.9128 20.155C16.82 19.9173 16.7693 19.6663 16.7629 19.4126C16.7629 18.7299 16.7629 18.0354 16.7629 17.3408C16.7629 14.79 16.7629 12.2272 16.7629 9.67645C16.7488 9.44383 16.7656 9.21044 16.8129 8.98187C16.8807 8.70419 17.1545 8.51898 17.4503 8.55075C17.7351 8.53434 17.9876 8.72478 18.0378 8.99385C18.0976 9.20458 18.127 9.42215 18.1253 9.64052V19.3886H18.1628Z" fill="#6FBE92"/>
<path fill-rule="evenodd" clip-rule="evenodd" d="M34.9308 6.856C34.8372 6.1398 34.379 5.52396 33.7212 5.23017C32.6046 4.76717 31.3205 5.01525 30.4553 5.86109C30.1454 6.20051 29.8547 6.55696 29.5844 6.9288L29.3666 7.24426C29.282 6.54054 29.1973 5.89749 29.1126 5.24231H25V24H29.6207V9.81647C29.6024 9.67551 29.6024 9.53277 29.6207 9.39181C29.6725 9.16966 29.7582 8.95686 29.8747 8.76089C30.0041 8.58967 30.2285 8.52117 30.4311 8.59103C30.6367 8.59103 30.6972 8.82156 30.7093 9.00355C30.7212 9.17321 30.7212 9.34349 30.7093 9.51314V16.0529H34.9913C34.9913 15.9679 34.9913 15.9073 34.9913 15.8345C34.9913 13.238 34.9913 10.6415 34.9913 8.04504C35.0135 7.64767 34.9932 7.24904 34.9308 6.856Z" fill="#6FBE92"/>
<path fill-rule="evenodd" clip-rule="evenodd" d="M42 3.11631C40.5059 2.88133 39.3947 1.56359 39.3721 0C38.947 0.548147 38.6308 1.17787 38.4419 1.85294C38.2559 1.60953 38.1536 1.30894 38.1512 0.998663C37.6414 1.31635 37.4457 1.98096 37.6977 2.53877L37 2.40642V9H42V3.11631Z" fill="#6FBE92"/>
<path fill-rule="evenodd" clip-rule="evenodd" d="M53.9999 6.89766C54.0091 5.56882 52.9483 4.44705 51.5394 4.29593L49 4V24H53.9999V6.89766Z" fill="#6FBE92"/>
<path fill-rule="evenodd" clip-rule="evenodd" d="M37 24H40.3411C41.2528 24 41.9936 23.2246 42 22.2638V20.4908C41.9304 20.5886 41.6984 20.8332 40.9327 20.7476C41.5057 20.2208 41.8837 19.4976 42 18.7057V10H37.3596L37 24Z" fill="#6FBE92"/>
<path fill-rule="evenodd" clip-rule="evenodd" d="M48 22.2324V20.4274C47.8953 20.5394 47.6279 20.7137 46.9767 20.639C47.5059 20.1537 47.8664 19.4914 48 18.7593V3.62241L43 3V24H46.3372C47.251 24 47.9936 23.2106 48 22.2324Z" fill="#6FBE92"/>
<path fill-rule="evenodd" clip-rule="evenodd" d="M16.0837 31.112C15.9516 31.2253 15.7845 31.2827 15.6146 31.2733C15.4046 31.2823 15.2014 31.1939 15.0582 31.0314C14.9024 30.8357 14.8242 30.5839 14.8401 30.3287V29.6951C14.8242 29.4399 14.9024 29.1881 15.0582 28.9924C15.2014 28.8298 15.4046 28.7415 15.6146 28.7505C15.7801 28.7337 15.9451 28.7876 16.0728 28.9002C16.1785 29.0043 16.2573 29.1352 16.3018 29.2804L16.9891 28.9117C16.8822 28.6289 16.6956 28.3877 16.4546 28.2205C16.2004 28.0636 15.9087 27.9876 15.6146 28.0017C15.3873 28.0005 15.1617 28.0434 14.9492 28.1284C14.7529 28.2172 14.5777 28.351 14.4364 28.5201C14.2871 28.7095 14.1758 28.9289 14.1092 29.1652C13.9636 29.7309 13.9636 30.3274 14.1092 30.8932C14.1758 31.119 14.2874 31.3272 14.4364 31.5037C14.5788 31.6659 14.7541 31.792 14.9492 31.8724C15.1617 31.9573 15.3873 32.0003 15.6146 31.9991C15.9147 32.0099 16.211 31.9256 16.4655 31.7572C16.6932 31.5797 16.8766 31.3465 17 31.0775L16.3455 30.6743C16.2956 30.8417 16.2053 30.9925 16.0837 31.112Z" fill="#6FBE92"/>
<path d="M24.4576 28.5071C24.2852 28.3376 24.0663 28.207 23.8203 28.1267C23.2914 27.9578 22.7084 27.9578 22.1795 28.1267C21.9334 28.207 21.7145 28.3376 21.5422 28.5071C21.3688 28.6932 21.2356 28.904 21.1489 29.1296C20.9504 29.6976 20.9504 30.3024 21.1489 30.8704C21.2325 31.0971 21.366 31.3084 21.5422 31.4929C21.7145 31.6624 21.9334 31.793 22.1795 31.8733C22.7084 32.0422 23.2914 32.0422 23.8203 31.8733C24.0663 31.793 24.2852 31.6624 24.4576 31.4929C24.6429 31.3118 24.7814 31.0997 24.8644 30.8704C25.0452 30.3003 25.0452 29.6997 24.8644 29.1296C24.7786 28.9013 24.6403 28.6897 24.4576 28.5071ZM23.9559 30.294C23.9749 30.5509 23.8833 30.8049 23.6982 31.0087C23.5225 31.174 23.2684 31.263 23.0067 31.2508C22.7403 31.2666 22.4803 31.1773 22.3015 31.0087C22.1247 30.8014 22.034 30.5499 22.0439 30.294V29.6599C22.034 29.404 22.1247 29.1525 22.3015 28.9452C22.5088 28.7641 22.8107 28.6858 23.1016 28.7377C23.3633 28.7255 23.6174 28.8144 23.7931 28.9798C23.9782 29.1835 24.0698 29.4376 24.0508 29.6945L23.9559 30.294Z" fill="#6FBE92"/>
<path fill-rule="evenodd" clip-rule="evenodd" d="M32 29.8746H31.9875L30.9625 28H30V32H30.85V29.3373H30.875L31.1875 29.9701L31.9875 31.3791L32.8125 29.9582L33.1125 29.3731H33.1375V32H34V28H33.025L32 29.8746Z" fill="#6FBE92"/>
<path d="M40.6782 28.3429C40.4529 28.1131 40.145 27.9893 39.8276 28.0007H38V32H38.8391V30.5253H39.8276C39.9932 30.53 40.1579 30.4978 40.3103 30.431C40.4504 30.374 40.5762 30.2853 40.6782 30.1714C40.785 30.0632 40.8639 29.9294 40.908 29.7821C40.9693 29.6163 41.0005 29.4404 41 29.263C40.9995 29.0858 40.9684 28.91 40.908 28.744C40.8613 28.5945 40.7827 28.4575 40.6782 28.3429ZM40.1264 29.381C40.1352 29.4901 40.0975 29.5977 40.023 29.6759C39.9404 29.7494 39.8333 29.7875 39.7241 29.7821H38.8391V28.744H39.7241C39.8333 28.7386 39.9404 28.7766 40.023 28.8501C40.097 28.9239 40.1349 29.0278 40.1264 29.1333V29.381Z" fill="#6FBE92"/>
<path d="M46.4839 28L45 32H45.9548L46.2645 31.0678H47.7097L48.0194 32H49L47.5935 28.0472L46.4839 28ZM46.5484 30.2773L47.0258 28.7788L47.5806 30.2773H46.5484Z" fill="#6FBE92"/>
<path fill-rule="evenodd" clip-rule="evenodd" d="M56.2555 30.6985H56.2336L55.8832 29.8866L54.8759 28H54V32H54.7555V29.3015H54.7774L55.1277 30.1134L56.135 32H57V28H56.2555V30.6985Z" fill="#6FBE92"/>
<path fill-rule="evenodd" clip-rule="evenodd" d="M63.0395 29.5881H63.0263L62.0789 28H61L62.5132 30.4358V32H63.4868V30.4358L65 28H63.9474L63.0395 29.5881Z" fill="#6FBE92"/>
</svg>
