<svg width="18" height="18" viewBox="0 0 18 18" fill="none" xmlns="http://www.w3.org/2000/svg">
<path d="M13.3574 5.55273C13.9097 5.55273 14.3574 5.10502 14.3574 4.55273C14.3574 4.00045 13.9097 3.55273 13.3574 3.55273C12.8051 3.55273 12.3574 4.00045 12.3574 4.55273C12.3574 5.10502 12.8051 5.55273 13.3574 5.55273Z" fill="white"/>
<path d="M8.95512 13.1774C11.2871 13.1774 13.1776 11.2869 13.1776 8.95492C13.1776 6.6229 11.2871 4.73242 8.95512 4.73242C6.62309 4.73242 4.73262 6.6229 4.73262 8.95492C4.71628 10.0797 5.15591 11.1633 5.95135 11.9587C6.74679 12.7541 7.83031 13.1938 8.95512 13.1774ZM8.95512 6.49492C9.95449 6.49189 10.857 7.09196 11.2408 8.01468C11.6247 8.9374 11.4141 10.0005 10.7074 10.7072C10.0007 11.4139 8.9376 11.6245 8.01488 11.2406C7.09216 10.8568 6.49208 9.95429 6.49512 8.95492C6.52298 7.60801 7.60821 6.52278 8.95512 6.49492Z" fill="white"/>
<path d="M4.90511 17.2501H13.0951C14.1989 17.2561 15.2593 16.8203 16.0398 16.0398C16.8203 15.2593 17.2561 14.1989 17.2501 13.0951V4.90511C17.2561 3.8013 16.8203 2.74095 16.0398 1.96043C15.2593 1.17991 14.1989 0.744084 13.0951 0.75011H4.90511C3.80068 0.742048 2.73915 1.17722 1.95818 1.95818C1.17722 2.73915 0.742048 3.80068 0.75011 4.90511V13.0951C0.742048 14.1995 1.17722 15.2611 1.95818 16.042C2.73915 16.823 3.80068 17.2582 4.90511 17.2501ZM2.53511 4.90511C2.5311 4.27464 2.77927 3.66872 3.22439 3.2222C3.6695 2.77568 4.27463 2.5256 4.90511 2.52761H13.0951C13.7263 2.52561 14.3322 2.77545 14.7785 3.22176C15.2248 3.66806 15.4746 4.27395 15.4726 4.90511V13.0951C15.4746 13.7263 15.2248 14.3322 14.7785 14.7785C14.3322 15.2248 13.7263 15.4746 13.0951 15.4726H4.90511C4.27463 15.4746 3.6695 15.2245 3.22439 14.778C2.77927 14.3315 2.5311 13.7256 2.53511 13.0951V4.90511Z" fill="white"/>
</svg>
