<svg width="17" height="22" viewBox="0 0 17 22" fill="none" xmlns="http://www.w3.org/2000/svg">
<path fill-rule="evenodd" clip-rule="evenodd" d="M1.55724 13.5577C1.79349 13.8953 2.0532 14.2149 2.33398 14.5141L7.56228 20.9514C8.04784 21.5493 8.95247 21.5495 9.43841 20.9521L14.7295 14.4456C14.9627 14.1918 15.1808 13.9237 15.3826 13.6427L15.491 13.5092H15.4764C16.4368 12.1167 17 10.4233 17 8.59678C17 3.84891 13.1944 0 8.5 0C3.80558 0 0 3.84891 0 8.59678C0 10.4233 0.563204 12.1167 1.52355 13.5092H1.51785L1.55724 13.5577ZM12.1429 8.59678C12.1429 10.6316 10.5119 12.2811 8.5 12.2811C6.48811 12.2811 4.85715 10.6316 4.85715 8.59678C4.85715 6.56198 6.48811 4.91244 8.5 4.91244C10.5119 4.91244 12.1429 6.56198 12.1429 8.59678Z" fill="#406982"/>
</svg>
