<svg width="31" height="33" viewBox="0 0 31 33" fill="none" xmlns="http://www.w3.org/2000/svg">
<path d="M30.36 3.31055V28.3204H19.0942C18.6449 28.32 18.2 28.4078 17.7848 28.5788C17.3696 28.7498 16.9924 29.0007 16.6747 29.317C16.357 29.6333 16.1051 30.0089 15.9334 30.4222C15.7616 30.8356 15.6734 31.2786 15.6738 31.7259V29.1243C15.6738 28.298 16.0035 27.5055 16.5904 26.9212C17.1773 26.3368 17.9732 26.0086 18.8032 26.0086H28.1913V3.31055H30.36Z" stroke="#301D11" stroke-linecap="round" stroke-linejoin="round"/>
<path d="M15.6799 4.19385C15.6799 3.36751 16.0096 2.57501 16.5965 1.9907C17.1834 1.40639 17.9793 1.07813 18.8093 1.07812H28.1974V26.004H18.8093C17.9793 26.004 17.1834 26.3322 16.5965 26.9165C16.0096 27.5009 15.6799 28.2934 15.6799 29.1197V4.19385Z" stroke="#301D11" stroke-linecap="round" stroke-linejoin="round"/>
<path d="M1 3.31055V28.3204H12.2657C12.715 28.32 13.16 28.4078 13.5752 28.5788C13.9903 28.7498 14.3676 29.0007 14.6853 29.317C15.003 29.6333 15.2549 30.0089 15.4266 30.4222C15.5984 30.8356 15.6866 31.2786 15.6862 31.7259V29.1243C15.6862 28.298 15.3565 27.5055 14.7696 26.9212C14.1827 26.3368 13.3867 26.0086 12.5568 26.0086H3.16866V3.31055H1Z" stroke="#301D11" stroke-linecap="round" stroke-linejoin="round"/>
<path d="M15.6799 4.19385C15.6799 3.36751 15.3502 2.57501 14.7633 1.9907C14.1764 1.40639 13.3805 1.07813 12.5505 1.07812H3.16235V26.004H12.5505C13.3805 26.004 14.1764 26.3322 14.7633 26.9165C15.3502 27.5009 15.6799 28.2934 15.6799 29.1197V4.19385Z" stroke="#301D11" stroke-linecap="round" stroke-linejoin="round"/>
</svg>
