<svg width="34" height="37" viewBox="0 0 34 37" fill="none" xmlns="http://www.w3.org/2000/svg">
<path d="M21.1892 36.4129C23.5395 36.4129 30.7363 31.0423 32.7666 20.7721C34.4556 12.2224 30.2776 9.85045 27.433 8.60782C24.5885 7.3652 17.8077 8.75297 17.0645 8.75297C16.3214 8.75297 9.52994 7.36874 6.69603 8.60782C3.86211 9.84691 -0.298091 12.2224 1.39088 20.7721C3.4212 31.0388 10.6358 36.4129 12.9683 36.4129C14.2875 36.4129 15.756 35.2481 17.0788 35.2375C18.4015 35.2269 19.87 36.4129 21.1892 36.4129Z" stroke="#301D11" stroke-linecap="round" stroke-linejoin="round"/>
<path d="M23.8633 31.2688C25.1606 30.1767 26.2453 28.8565 27.0635 27.374" stroke="#301D11" stroke-linecap="round" stroke-linejoin="round"/>
<path d="M9.97791 10.9443C9.34809 10.9561 8.72502 11.0759 8.13606 11.2983C7.01957 11.7869 5.64707 12.509 4.74037 14.01C4.58817 14.2668 4.45736 14.5355 4.34924 14.8136M3.84433 17.5818C3.84171 18.2703 3.89283 18.958 3.99723 19.6386C4.03516 19.8982 4.08138 20.1637 4.1359 20.4351L3.84433 17.5818Z" stroke="#301D11" stroke-linecap="round" stroke-linejoin="round"/>
<path d="M16.9935 8.09135C16.9935 8.09135 17.4202 5.33662 16.3215 3.17673C15.2228 1.01685 12.5737 1.00977 12.5737 1.00977" stroke="#301D11" stroke-linecap="round" stroke-linejoin="round"/>
<path d="M17.2246 4.53394C17.2246 4.53394 18.6825 1.83203 21.1928 1.16275C23.7031 0.493471 26.3344 2.1047 26.3344 2.1047C26.3344 2.1047 24.8765 4.80661 22.3662 5.47589C19.8558 6.14517 17.2246 4.53394 17.2246 4.53394Z" stroke="#301D11" stroke-linecap="round" stroke-linejoin="round"/>
</svg>
