<?xml version="1.0" encoding="UTF-8"?>
<svg width="55px" height="68px" viewBox="0 0 55 68" version="1.1" xmlns="http://www.w3.org/2000/svg" xmlns:xlink="http://www.w3.org/1999/xlink">
    <!-- Generator: Sketch 52.2 (67145) - http://www.bohemiancoding.com/sketch -->
    <title>pin</title>
    <desc>Created with Sketch.</desc>
    <g id="Main" stroke="none" stroke-width="1" fill="none" fill-rule="evenodd">
        <g id="desktop-/-main" transform="translate(-1014.000000, -3169.000000)" fill="#0A2896">
            <g id="006_maps_cmplx" transform="translate(0.000000, 2798.000000)">
                <g id="Group" transform="translate(637.000000, 0.000000)">
                    <path d="M382.038118,414.080636 C382.802461,415.153408 383.642704,416.168814 384.551107,417.119441 L401.4662,437.574694 C403.037157,439.474386 405.963864,439.475167 407.536039,437.576645 L424.654357,416.902077 C425.408643,416.095449 426.114214,415.243553 426.767143,414.350682 L427.117964,413.92649 L427.070821,413.92649 C430.177929,409.501823 432,404.120714 432,398.316858 C432,383.230186 419.687857,371 404.5,371 C389.312182,371 377,383.230186 377,398.316858 C377,404.120714 378.82213,409.501823 381.929139,413.92649 L381.910714,413.92649 L382.038118,414.080636 Z M416.285714,398.316858 C416.285714,404.782563 411.009054,410.024082 404.5,410.024082 C397.990946,410.024082 392.714286,404.782563 392.714286,398.316858 C392.714286,391.851152 397.990946,386.609633 404.5,386.609633 C411.009054,386.609633 416.285714,391.851152 416.285714,398.316858 Z" id="pin"></path>
                </g>
            </g>
        </g>
    </g>
</svg>