<svg width="103" height="110" viewBox="0 0 103 110" fill="none" xmlns="http://www.w3.org/2000/svg">
<path fill-rule="evenodd" clip-rule="evenodd" d="M101.827 69.713L101.175 70.9052C100.654 60.1086 100.719 49.3121 101.241 38.5155L101.892 39.7078C101.436 49.7095 101.436 59.7112 101.827 69.713ZM90.6183 19.903C80.778 14.7366 71.1984 9.10646 61.8794 3.0127H63.1828C71.8501 8.64281 80.778 13.9417 89.9014 18.777L90.5531 19.9693L90.6183 19.903ZM41.7427 3.0127C32.2934 9.1727 22.5834 14.9353 12.6128 20.1017L13.2645 18.9095C22.5183 14.008 31.5766 8.70904 40.3742 3.0127H41.7427ZM1.72986 39.2441L2.38153 38.0519C2.90287 49.1134 2.96804 60.1749 2.4467 71.3026L1.79503 70.1104C2.18603 59.8437 2.18603 49.577 1.72986 39.2441ZM13.2645 90.445C22.5834 95.2803 31.6417 100.579 40.4393 106.342H39.136C30.9249 101.043 22.5183 96.1414 13.9162 91.571L13.2645 90.445ZM63.1176 106.342C71.7849 100.645 80.778 95.4128 89.9666 90.5775L89.3149 91.7697C80.8432 96.2738 72.5669 101.109 64.4861 106.342H63.1176Z" fill="#1B3A4D"/>
<path d="M64.7467 107.338H59.794L62.5962 105.549C71.2634 99.9191 80.3217 94.5537 89.5103 89.7845L92.4428 88.261L90.0317 92.5665L89.771 92.699C81.3644 97.137 73.0229 102.039 65.0074 107.205L64.7467 107.338ZM43.8279 107.338H38.8752L38.6145 107.205C30.4686 101.973 22.062 97.0046 13.5251 92.5003L13.2644 92.3678L12.6779 91.2417L11.5049 90.6456L13.5902 88.9234L14.0464 89.7182C23.235 94.5537 32.2933 99.8528 40.9606 105.483L43.8279 107.338ZM3.22862 74.8144L0.75226 70.4426V70.1776C1.14327 60.2417 1.14327 50.2396 0.75226 40.3037H0.100586L3.22862 34.6734L3.35896 38.0516C3.94546 49.1135 3.94546 60.308 3.42413 71.3699L3.22862 74.8144ZM100.328 74.417L100.198 70.9725C99.6764 60.1755 99.7416 49.246 100.263 38.449L100.458 35.0046L102.935 39.3764V39.6413C102.479 49.5772 102.479 59.6456 102.935 69.6477L103 70.7076H102.413L100.328 74.417ZM10.1364 22.4854L12.5476 18.1798L12.8082 18.0473C22.062 13.2119 31.1203 7.84647 39.8527 2.21613L40.1134 2.08365L45.1965 1.95117L42.2639 3.87211C32.8798 10.0324 23.0395 15.7952 13.0689 21.0281L10.1364 22.4854ZM90.0317 21.0281L89.771 20.5644C80.1262 15.5302 70.5466 9.89989 61.358 3.87211L58.5558 2.01741H63.4433L63.704 2.14989C72.3061 7.78023 81.2992 13.0131 90.3575 17.8486L90.6182 17.9811L91.2047 19.1071L93.5507 20.2995L90.0317 21.0281Z" fill="#1B3A4D"/>
<path d="M51.7784 6.39551C38.8101 15.6693 25.0597 23.7507 10.6577 30.5736C12.0262 46.604 12.0262 62.7669 10.6577 78.7973C24.9946 85.6202 38.8101 93.7016 51.7784 102.909C64.7467 93.7016 78.497 85.6202 92.899 78.7973C91.5305 62.7669 91.5305 46.604 92.899 30.5736C78.5622 23.7507 64.8119 15.6693 51.7784 6.39551ZM65.9849 69.3248C65.3332 70.9808 64.2905 72.5044 62.922 73.6967C61.5535 74.9553 59.9243 75.8827 58.1648 76.4789C56.2098 77.1413 54.1896 77.4725 52.1042 77.4063C50.5402 77.4063 48.9762 77.2075 47.4773 76.8101C46.0436 76.4126 44.6751 75.684 43.5673 74.6904C42.7201 75.2865 41.8077 75.8827 40.8954 76.3464C39.9831 76.8101 39.0056 77.2075 38.028 77.5387C37.5067 76.0152 37.1809 74.4916 36.9202 72.9018C36.7247 71.312 36.5944 69.656 36.5944 68.0662C36.5944 66.9401 36.5944 65.814 36.6595 64.6879C36.7247 63.5618 36.855 62.5019 36.9854 61.3096H41.1561C41.1561 62.7669 41.3516 64.2905 41.6774 65.7478C42.0033 67.2051 42.6549 68.5962 43.4369 69.8547C44.2841 71.1133 45.392 72.1732 46.6301 72.9018C48.0638 73.6967 49.7582 74.1604 51.3874 74.0942C52.821 74.1604 54.2547 73.9617 55.6232 73.5643C56.6659 73.233 57.5783 72.7031 58.4254 72.0407C59.1423 71.4445 59.6636 70.6496 59.9895 69.7885C60.3153 68.9274 60.5108 68 60.5108 67.0726C60.576 65.6815 60.1198 64.3567 59.3378 63.2306C58.3603 62.0383 56.9918 61.1771 55.4929 60.7797C52.821 59.8523 50.4099 58.9249 48.1942 58.0638C46.174 57.2689 44.2189 56.1428 42.4594 54.8179C40.8954 53.6256 39.5921 52.1021 38.6797 50.3798C37.7022 48.3925 37.246 46.2728 37.3112 44.0206C37.246 40.5761 38.6797 37.264 41.2864 35.078C42.5246 34.0182 43.9583 33.157 45.5223 32.6933C47.2166 32.1634 48.911 31.8322 50.6705 31.8984C52.2345 31.8984 53.7986 32.2296 55.2974 32.7596C56.7963 33.3557 58.0996 34.4156 59.012 35.7404C59.5333 34.8131 60.2501 34.0844 61.0973 33.5545C61.9445 33.0245 62.8568 32.5608 63.8344 32.2959C64.5512 34.6143 64.9422 36.999 65.0074 39.45C65.1377 42.0996 65.2029 44.6168 65.2029 47.0015H60.7063C60.3805 45.3454 59.9243 43.7556 59.403 42.1658C58.9468 40.841 58.2951 39.5824 57.5131 38.3901C56.7963 37.3965 55.9491 36.5353 54.9064 35.9392C53.9289 35.343 52.821 35.078 51.648 35.078C49.1717 35.078 47.2166 35.6079 45.783 36.6016C44.4796 37.5289 43.6976 39.0525 43.6976 40.6423C43.6324 41.6359 43.8931 42.6958 44.4144 43.5569C44.9358 44.3518 45.6526 45.0142 46.4998 45.5442C47.5425 46.2066 48.6503 46.7365 49.8233 47.2002C51.1267 47.7301 52.6255 48.3263 54.2547 48.9887C56.0794 49.7174 57.8389 50.5123 59.403 51.2409C60.8366 51.9033 62.2052 52.8307 63.3782 53.9568C64.486 55.0167 65.3984 56.3415 65.9197 57.7988C66.5714 59.5873 66.8972 61.5746 66.8321 63.4956C67.0927 65.4828 66.7017 67.47 65.9849 69.3248Z" fill="#1B3A4D"/>
<path d="M98.3731 27.3184C82.0812 19.5686 66.5062 10.4277 51.8435 0.0283203C37.0505 10.4939 21.4755 19.6348 5.24878 27.3184C6.8128 45.5339 6.8128 63.8156 5.24878 81.9648C21.5406 89.7147 37.1157 98.8555 51.8435 109.255C66.5714 98.7893 82.1464 89.6484 98.3731 81.8986C96.8091 63.8156 96.8091 45.5339 98.3731 27.3184ZM95.8315 80.5076C80.452 87.7938 65.7242 96.4709 51.8435 106.34C37.9628 96.4709 23.235 87.7938 7.85548 80.5076C9.35433 63.2857 9.35433 46.0638 7.85548 28.8419C23.235 21.5557 37.9628 12.8785 51.8435 3.00903C65.7242 12.8785 80.452 21.5557 95.8315 28.8419C94.3327 46.0638 94.3327 63.2857 95.8315 80.5076Z" fill="#1B3A4D"/>
</svg>
