<?xml version="1.0" encoding="UTF-8"?>
<svg width="69px" height="77px" viewBox="0 0 69 77" version="1.1" xmlns="http://www.w3.org/2000/svg" xmlns:xlink="http://www.w3.org/1999/xlink">
    <!-- Generator: Sketch 52.2 (67145) - http://www.bohemiancoding.com/sketch -->
    <title>swipe0</title>
    <desc>Created with Sketch.</desc>
    <g id="Vnutr" stroke="none" stroke-width="1" fill="none" fill-rule="evenodd">
        <g id="mob-/-project" transform="translate(-126.000000, -4200.000000)">
            <g id="swipe0" transform="translate(127.000000, 4200.000000)">
                <path d="M57.0803381,76 L20.168387,76 C16.3860267,75.997099 12.7578283,74.5384905 10.0730019,71.9414529 L5.03650161,67.0101 C1.81027078,63.8692671 -0.00177241676,59.6064455 1.30092543e-06,55.161761 C-0.00033116343,50.7109451 1.81104096,46.4418547 5.03650161,43.2916018 L19.2506247,29.4358094 C21.2169922,27.5213969 24.4025109,27.5213969 26.3688784,29.4358094 C28.3353765,31.3600845 28.3353765,34.4721608 26.3688784,36.3964359 L24.2423561,38.4693497 L27.801483,34.9999465 C29.7678505,33.085534 32.9533692,33.085534 34.9197367,34.9999465 C36.8836588,36.916743 36.8836588,40.0219564 34.9197367,41.9387528 L31.3606099,45.4299761 L36.3523413,40.5640837 C38.3187088,38.6496711 41.5042275,38.6496711 43.470595,40.5640837 C45.4345171,42.4808801 45.4345171,45.5860935 43.470595,47.5028899 L38.5012481,52.3687824 L56.4088047,34.912666 C58.3751723,32.9982534 61.5606909,32.9982534 63.5270585,34.912666 C65.4909805,36.8294624 65.4909805,39.9346758 63.5270585,41.8514722 L39.9114682,64.8935459 L54.2375135,66.8791792 C57.4466337,67.3857489 59.8226703,70.0603367 59.8783938,73.2288415 C59.8785864,74.7424282 58.6328758,75.976164 57.0803381,76 Z" id="Path" stroke="#FFFFFF" stroke-width="2" stroke-linecap="round" stroke-linejoin="round"></path>
                <path d="M21,7.12907785 C37.997586,3.38255196 55.734842,9.11666835 67,22" id="Path" stroke="#FFFFFF" stroke-width="2" stroke-linecap="round" stroke-linejoin="round"></path>
                <polygon id="Path" fill="#FFFFFF" points="28 11.3513514 3 15 22.7249775 0"></polygon>
            </g>
        </g>
    </g>
</svg>