<svg width="38" height="30" viewBox="0 0 38 30" fill="none" xmlns="http://www.w3.org/2000/svg">
<path d="M32.959 12.4464C32.3684 9.1433 30.627 6.15326 28.041 4.00218C25.455 1.85109 22.19 0.676718 18.8203 0.685597C15.4506 0.694476 12.1919 1.88604 9.61734 4.05072C7.04281 6.21541 5.31731 9.21458 4.74432 12.5208C4.40126 12.3712 4.03078 12.294 3.65626 12.2942C3.25829 12.2958 2.86572 12.386 2.50733 12.5583C2.14894 12.7305 1.83382 12.9805 1.58508 13.2898C1.33634 13.5991 1.16028 13.9599 1.06981 14.3458C0.979348 14.7317 0.97677 15.1328 1.06227 15.5198C1.14777 15.9068 1.31918 16.2698 1.56392 16.5822C1.80867 16.8947 2.12055 17.1486 2.4767 17.3255C2.83285 17.5023 3.22423 17.5975 3.62214 17.6041C4.02006 17.6108 4.41442 17.5287 4.77632 17.3638C5.39047 20.6274 7.12898 23.5755 9.69216 25.6997C12.2553 27.824 15.4826 28.9914 18.8175 29.0006C22.1525 29.0098 25.3862 27.8603 27.9612 25.7503C30.5361 23.6402 32.2911 20.7019 32.9234 17.4417C33.3251 17.5891 33.7565 17.6381 34.1811 17.5846C34.6058 17.531 35.0112 17.3764 35.3633 17.134C35.7153 16.8915 36.0035 16.5682 36.2036 16.1914C36.4036 15.8146 36.5097 15.3954 36.5127 14.9693C36.5157 14.5431 36.4157 14.1224 36.221 13.7429C36.0263 13.3633 35.7427 13.036 35.3942 12.7886C35.0457 12.5411 34.6424 12.3809 34.2186 12.3213C33.7947 12.2618 33.3627 12.3047 32.959 12.4464V12.4464Z" stroke="#301D11" stroke-linecap="round" stroke-linejoin="round"/>
<path d="M15.0273 12.797C15.0273 12.2777 14.8202 11.7796 14.4514 11.4124C14.0827 11.0452 13.5825 10.8389 13.061 10.8389C12.5395 10.8389 12.0394 11.0452 11.6706 11.4124C11.3019 11.7796 11.0947 12.2777 11.0947 12.797" stroke="#301D11" stroke-linecap="round" stroke-linejoin="round"/>
<path d="M26.2707 12.7978C26.282 12.5336 26.2395 12.2698 26.1457 12.0223C26.0519 11.7749 25.9087 11.5489 25.7248 11.3579C25.541 11.167 25.3202 11.015 25.0758 10.9112C24.8314 10.8074 24.5684 10.7539 24.3026 10.7539C24.0369 10.7539 23.7739 10.8074 23.5295 10.9112C23.2851 11.015 23.0643 11.167 22.8805 11.3579C22.6966 11.5489 22.5534 11.7749 22.4596 12.0223C22.3658 12.2698 22.3233 12.5336 22.3345 12.7978" stroke="#301D11" stroke-linecap="round" stroke-linejoin="round"/>
<path d="M22.6155 17.5889C22.6313 18.1132 22.5413 18.6354 22.3507 19.1244C22.1601 19.6135 21.8728 20.0595 21.5059 20.4359C21.139 20.8124 20.6999 21.1117 20.2147 21.3161C19.7294 21.5204 19.2079 21.6258 18.6811 21.6258C18.1542 21.6258 17.6327 21.5204 17.1475 21.3161C16.6622 21.1117 16.2232 20.8124 15.8562 20.4359C15.4893 20.0595 15.2021 19.6135 15.0115 19.1244C14.8209 18.6354 14.7308 18.1132 14.7467 17.5889" stroke="#301D11" stroke-linecap="round" stroke-linejoin="round"/>
<path d="M19.1274 5.54043C21.1151 4.65542 20.1159 2.74025 18.8429 2.74025C18.2771 2.74025 17.7345 2.96403 17.3344 3.36236C16.9343 3.7607 16.7095 4.30095 16.7095 4.86428C16.7081 5.19947 16.773 5.53164 16.9006 5.84185C17.0281 6.15205 17.2158 6.43421 17.4528 6.6722C17.6899 6.9102 17.9717 7.09938 18.2822 7.22894C18.5927 7.35849 18.9258 7.42589 19.2625 7.42728C20.0786 7.42354 20.8598 7.09743 21.4345 6.52061C22.0092 5.94379 22.3304 5.16344 22.3276 4.35097C22.3285 3.37947 21.943 2.44712 21.2553 1.75785C20.5677 1.06857 19.6338 0.678467 18.658 0.672852" stroke="#301D11" stroke-linecap="round" stroke-linejoin="round"/>
</svg>
