<svg width="22" height="12" viewBox="0 0 22 12" fill="none" xmlns="http://www.w3.org/2000/svg">
<path fill-rule="evenodd" clip-rule="evenodd" d="M20.09 11.8124H17.3899C16.9048 11.8542 16.422 11.7093 16.04 11.4074C15.035 10.7099 14.075 8.9099 13.3325 9.1574C12.59 9.4049 12.5825 11.0249 12.5825 11.0249C12.582 11.2161 12.5217 11.4023 12.41 11.5574C12.2571 11.6928 12.0656 11.7767 11.8625 11.7974H10.67C8.75262 11.7636 6.93542 10.9351 5.65245 9.5099C3.08745 6.8549 0.822451 1.5524 0.822451 1.5524C0.822451 1.5524 0.687451 1.2074 0.822451 1.0424C0.996145 0.913419 1.20612 0.842553 1.42245 0.839903H4.30995C4.4752 0.873157 4.63286 0.936729 4.77495 1.0274C4.8846 1.11722 4.96975 1.23332 5.02245 1.3649C5.33868 2.1364 5.70186 2.88781 6.10995 3.6149C7.31745 5.6999 7.88745 6.1574 8.29245 5.9324C8.89995 5.5949 8.74995 2.9999 8.74995 2.9999C8.76541 2.5246 8.66231 2.05291 8.44995 1.6274C8.22224 1.36595 7.90266 1.20214 7.55745 1.1699C7.39245 1.1699 7.65495 0.772403 8.00745 0.607403C8.82511 0.357572 9.6834 0.268432 10.535 0.344904C11.0118 0.325047 11.4891 0.373026 11.9525 0.487404C12.95 0.719904 12.6125 1.6574 12.6125 3.8849C12.6125 4.6349 12.485 5.6099 13.0025 5.9399C13.22 6.0824 13.7525 5.9399 15.1175 3.6899C15.5563 2.90736 15.9349 2.0925 16.25 1.2524C16.3101 1.12101 16.4031 1.00735 16.52 0.922403C16.6407 0.862717 16.7762 0.839273 16.91 0.854903H19.9625C19.9625 0.854903 20.8775 0.749904 21.02 1.1624C21.1625 1.5749 20.6825 2.6099 19.4375 4.2674C17.3974 6.9899 17.1875 6.7349 18.86 8.3099C19.6595 8.96274 20.3396 9.74942 20.87 10.6349C21.5 11.7224 20.09 11.8124 20.09 11.8124Z" fill="white"/>
</svg>
